<?xml version="1.0" standalone="no"?><!-- Generator: Gravit.io --><svg xmlns="http://www.w3.org/2000/svg" xmlns:xlink="http://www.w3.org/1999/xlink" style="isolation:isolate" viewBox="0 0 60 60" width="60" height="60"><defs><clipPath id="_clipPath_4sMLRZxhdtt5kKFMMBePOkqiWLZ6dbkW"><rect width="60" height="60"/></clipPath></defs><g clip-path="url(#_clipPath_4sMLRZxhdtt5kKFMMBePOkqiWLZ6dbkW)"><g><path d=" M 24.824 19.262 L 45.217 19.262 C 45.695 19.262 46.082 18.875 46.082 18.396 C 46.082 17.918 45.695 17.531 45.217 17.531 L 24.824 17.531 C 24.346 17.531 23.959 17.918 23.959 18.396 C 23.959 18.875 24.346 19.262 24.824 19.262 Z " fill="rgb(0,0,0)" vector-effect="non-scaling-stroke" stroke-width="2" stroke="rgb(115,186,225)" stroke-linejoin="miter" stroke-linecap="butt" stroke-miterlimit="4"/><path d=" M 24.824 32.239 L 45.217 32.239 C 45.695 32.239 46.082 31.853 46.082 31.374 C 46.082 30.896 45.695 30.509 45.217 30.509 L 24.824 30.509 C 24.346 30.509 23.959 30.896 23.959 31.374 C 23.959 31.853 24.346 32.239 24.824 32.239 Z " fill="rgb(0,0,0)" vector-effect="non-scaling-stroke" stroke-width="2" stroke="rgb(115,186,225)" stroke-linejoin="miter" stroke-linecap="butt" stroke-miterlimit="4"/><path d=" M 24.824 45.217 L 45.217 45.217 C 45.695 45.217 46.082 44.83 46.082 44.352 C 46.082 43.873 45.695 43.487 45.217 43.487 L 24.824 43.487 C 24.346 43.487 23.959 43.873 23.959 44.352 C 23.959 44.83 24.346 45.217 24.824 45.217 Z " fill="rgb(0,0,0)" vector-effect="non-scaling-stroke" stroke-width="2" stroke="rgb(115,186,225)" stroke-linejoin="miter" stroke-linecap="butt" stroke-miterlimit="4"/><path d=" M 57.55 1.5 L 2.45 1.5 C 1.926 1.5 1.5 1.925 1.5 2.45 L 1.5 57.55 C 1.5 58.075 1.926 58.5 2.45 58.5 L 57.55 58.5 C 58.074 58.5 58.5 58.075 58.5 57.55 L 58.5 2.45 C 58.5 1.925 58.074 1.5 57.55 1.5 Z  M 56.6 56.6 L 3.4 56.6 L 3.4 3.4 L 56.6 3.4 L 56.6 56.6 Z " fill="rgb(0,0,0)" vector-effect="non-scaling-stroke" stroke-width="3" stroke="rgb(115,186,225)" stroke-linejoin="miter" stroke-linecap="butt" stroke-miterlimit="4"/><path d=" M 14.351 20.537 L 16.452 19.432 L 18.553 20.537 L 18.152 18.197 L 19.851 16.54 L 17.502 16.199 L 16.452 14.071 L 15.402 16.199 L 13.053 16.54 L 14.753 18.197 L 14.351 20.537 Z " fill="rgb(115,186,225)" vector-effect="non-scaling-stroke" stroke-width="2" stroke="rgb(115,186,225)" stroke-linejoin="miter" stroke-linecap="butt" stroke-miterlimit="4"/><path d=" M 14.351 33.586 L 16.452 32.482 L 18.553 33.586 L 18.152 31.247 L 19.851 29.59 L 17.502 29.248 L 16.452 27.12 L 15.402 29.248 L 13.053 29.59 L 14.753 31.247 L 14.351 33.586 Z " fill="rgb(115,186,225)" vector-effect="non-scaling-stroke" stroke-width="2" stroke="rgb(115,186,225)" stroke-linejoin="miter" stroke-linecap="butt" stroke-miterlimit="4"/><path d=" M 14.351 46.947 L 16.452 45.842 L 18.553 46.947 L 18.152 44.608 L 19.851 42.951 L 17.502 42.609 L 16.452 40.481 L 15.402 42.609 L 13.053 42.951 L 14.753 44.608 L 14.351 46.947 Z " fill="rgb(115,186,225)" vector-effect="non-scaling-stroke" stroke-width="2" stroke="rgb(115,186,225)" stroke-linejoin="miter" stroke-linecap="butt" stroke-miterlimit="4"/></g></g></svg>