<?xml version="1.0" standalone="no"?><!-- Generator: Gravit.io --><svg xmlns="http://www.w3.org/2000/svg" xmlns:xlink="http://www.w3.org/1999/xlink" style="isolation:isolate" viewBox="0 0 48 48" width="48" height="48"><defs><clipPath id="_clipPath_fLYWMaNTI38Fpbq3Xdx6klY61OgDyjAi"><rect width="48" height="48"/></clipPath></defs><g clip-path="url(#_clipPath_fLYWMaNTI38Fpbq3Xdx6klY61OgDyjAi)"><path d=" M 5.6 4.22 C 3.07 4.22 1 6.29 1 8.82 L 1 35.5 C 1 38.03 3.07 40.1 5.6 40.1 L 20.32 40.1 C 21.851 40.1 23.08 41.343 23.08 42.86 C 23.08 43.144 23.213 43.413 23.436 43.586 C 23.662 43.762 23.953 43.823 24.23 43.751 C 24.471 43.69 24.679 43.535 24.805 43.32 C 24.884 43.179 24.924 43.021 24.92 42.86 C 24.92 41.343 26.149 40.1 27.68 40.1 L 42.4 40.1 C 44.93 40.1 47 38.03 47 35.5 L 47 8.82 C 47 6.29 44.93 4.22 42.4 4.22 L 27.68 4.22 C 26.178 4.22 24.841 4.967 24 6.088 C 23.159 4.967 21.822 4.22 20.32 4.22 L 5.6 4.22 Z  M 5.6 6.06 L 20.32 6.06 C 21.855 6.06 23.08 7.285 23.08 8.82 L 23.08 39.295 C 22.3 38.687 21.377 38.26 20.32 38.26 L 5.6 38.26 C 4.065 38.26 2.84 37.034 2.84 35.5 L 2.84 8.82 C 2.84 7.285 4.065 6.06 5.6 6.06 Z  M 27.68 6.06 L 42.4 6.06 C 43.935 6.06 45.16 7.285 45.16 8.82 L 45.16 35.5 C 45.16 37.034 43.935 38.26 42.4 38.26 L 27.68 38.26 C 26.623 38.26 25.7 38.687 24.92 39.295 L 24.92 8.82 C 24.92 7.285 26.145 6.06 27.68 6.06 Z " fill="rgb(115,186,225)"/></g></svg>