<?xml version="1.0" standalone="no"?><!-- Generator: Gravit.io --><svg xmlns="http://www.w3.org/2000/svg" xmlns:xlink="http://www.w3.org/1999/xlink" style="isolation:isolate" viewBox="0 0 48 48" width="48" height="48"><defs><clipPath id="_clipPath_LX1SxZBZKVisq5NYpuwDEKG9ZVL5Wroq"><rect width="48" height="48"/></clipPath></defs><g clip-path="url(#_clipPath_LX1SxZBZKVisq5NYpuwDEKG9ZVL5Wroq)"><path d=" M 11.344 0 C 10.849 0.093 10.492 0.531 10.5 1.038 L 10.5 46.731 C 10.496 47.104 10.695 47.449 11.015 47.635 C 11.336 47.826 11.733 47.826 12.058 47.639 L 24 40.662 L 35.942 47.639 C 36.267 47.826 36.664 47.826 36.985 47.635 C 37.305 47.449 37.504 47.104 37.5 46.731 L 37.5 1.038 C 37.5 0.466 37.033 0 36.462 0 L 11.539 0 C 11.506 0 11.474 0 11.441 0 C 11.409 0 11.376 0 11.344 0 Z  M 12.577 2.077 L 35.423 2.077 L 35.423 44.913 L 24.519 38.553 C 24.199 38.366 23.801 38.366 23.481 38.553 L 12.577 44.913 L 12.577 2.077 Z " fill="rgb(115,186,225)"/></g></svg>