<?xml version="1.0" standalone="no"?><!-- Generator: Gravit.io --><svg xmlns="http://www.w3.org/2000/svg" xmlns:xlink="http://www.w3.org/1999/xlink" style="isolation:isolate" viewBox="0 0 48 48" width="48" height="48"><defs><clipPath id="_clipPath_cG7Te9ARnWghr6dWu9AmkmgO1qU5LjrM"><rect width="48" height="48"/></clipPath></defs><g clip-path="url(#_clipPath_cG7Te9ARnWghr6dWu9AmkmgO1qU5LjrM)"><mask id="_mask_aTm2nMe1no89fcQn9NFcAgQVxMhH2SAJ" x="-200%" y="-200%" width="400%" height="400%"><rect x="-200%" y="-200%" width="400%" height="400%" style="fill:white;"/><path d=" M 39 3 L 1 3 M 39 12 L 1 12 M 39 36 L 1 36 M 39 45 L 1 45 M 42 28.5 L 4 28.5 M 42 19.5 L 4 19.5" fill-rule="evenodd" fill="black" stroke="none"/></mask><path d=" M 39 3 L 1 3 M 39 12 L 1 12 M 39 36 L 1 36 M 39 45 L 1 45 M 42 28.5 L 4 28.5 M 42 19.5 L 4 19.5" fill-rule="evenodd" fill="none" mask="url(#_mask_aTm2nMe1no89fcQn9NFcAgQVxMhH2SAJ)" vector-effect="non-scaling-stroke" stroke-width="2" stroke="rgb(115,186,225)" stroke-opacity="100" stroke-linejoin="round" stroke-linecap="round" stroke-miterlimit="3"/><mask id="_mask_i7Q9skEZyOJGaOttFof2imRSGyuQhHMI" x="-200%" y="-200%" width="400%" height="400%"><rect x="-200%" y="-200%" width="400%" height="400%" style="fill:white;"/><path d=" M 39 4 C 41.208 4 43 5.568 43 7.5 C 43 9.432 41.208 11 39 11 M 39 37 C 41.208 37 43 38.568 43 40.5 C 43 42.432 41.208 44 39 44 M 42 20.5 C 44.208 20.5 46 22.068 46 24 C 46 25.932 44.208 27.5 42 27.5" fill-rule="evenodd" fill="black" stroke="none"/></mask><path d=" M 39 4 C 41.208 4 43 5.568 43 7.5 C 43 9.432 41.208 11 39 11 M 39 37 C 41.208 37 43 38.568 43 40.5 C 43 42.432 41.208 44 39 44 M 42 20.5 C 44.208 20.5 46 22.068 46 24 C 46 25.932 44.208 27.5 42 27.5" fill-rule="evenodd" fill="none" mask="url(#_mask_i7Q9skEZyOJGaOttFof2imRSGyuQhHMI)" vector-effect="non-scaling-stroke" stroke-width="4" stroke="rgb(115,186,225)" stroke-opacity="100" stroke-linejoin="round" stroke-linecap="butt" stroke-miterlimit="3"/></g></svg>