<?xml version="1.0" standalone="no"?><!-- Generator: Gravit.io --><svg xmlns="http://www.w3.org/2000/svg" xmlns:xlink="http://www.w3.org/1999/xlink" style="isolation:isolate" viewBox="0 0 60 60" width="60" height="60"><defs><clipPath id="_clipPath_Sr6bZZTY1gMLN8orbz8reOx2XvakTjNB"><rect width="60" height="60"/></clipPath></defs><g clip-path="url(#_clipPath_Sr6bZZTY1gMLN8orbz8reOx2XvakTjNB)"><g><path d=" M 57.964 4.867 L 50.714 4.867 L 50.714 1.967 C 50.714 1.432 50.251 1 49.679 1 L 42.429 1 C 41.856 1 41.393 1.432 41.393 1.967 L 41.393 4.867 L 18.607 4.867 L 18.607 1.967 C 18.607 1.432 18.144 1 17.571 1 L 10.321 1 C 9.749 1 9.286 1.432 9.286 1.967 L 9.286 4.867 L 2.036 4.867 C 1.463 4.867 1 5.299 1 5.833 L 1 16.467 L 1 58.033 C 1 58.568 1.463 59 2.036 59 L 57.964 59 C 58.537 59 59 58.568 59 58.033 L 59 16.467 L 59 5.833 C 59 5.299 58.537 4.867 57.964 4.867 Z  M 43.464 2.933 L 48.643 2.933 L 48.643 5.833 L 48.643 8.733 L 43.464 8.733 L 43.464 5.833 L 43.464 2.933 Z  M 11.357 2.933 L 16.536 2.933 L 16.536 5.833 L 16.536 8.733 L 11.357 8.733 L 11.357 5.833 L 11.357 2.933 Z  M 3.071 6.8 L 9.286 6.8 L 9.286 9.7 C 9.286 10.235 9.749 10.667 10.321 10.667 L 17.571 10.667 C 18.144 10.667 18.607 10.235 18.607 9.7 L 18.607 6.8 L 41.393 6.8 L 41.393 9.7 C 41.393 10.235 41.856 10.667 42.429 10.667 L 49.679 10.667 C 50.251 10.667 50.714 10.235 50.714 9.7 L 50.714 6.8 L 56.929 6.8 L 56.929 15.5 L 3.071 15.5 L 3.071 6.8 Z  M 3.071 57.067 L 3.071 17.433 L 56.929 17.433 L 56.929 57.067 L 3.071 57.067 Z " fill="rgb(115,186,225)" vector-effect="non-scaling-stroke" stroke-width="2" stroke="rgb(115,186,225)" stroke-linejoin="miter" stroke-linecap="butt" stroke-miterlimit="4"/><path d=" M 38 23 L 31 23 L 29 23 L 22 23 L 20 23 L 11 23 L 11 32 L 11 34 L 11 41 L 11 43 L 11 52 L 20 52 L 22 52 L 29 52 L 31 52 L 38 52 L 40 52 L 49 52 L 49 43 L 49 41 L 49 34 L 49 32 L 49 23 L 40 23 L 38 23 L 38 23 Z  M 31 25 L 38 25 L 38 32 L 31 32 L 31 25 L 31 25 Z  M 38 41 L 31 41 L 31 34 L 38 34 L 38 41 L 38 41 Z  M 22 34 L 29 34 L 29 41 L 22 41 L 22 34 L 22 34 Z  M 22 25 L 29 25 L 29 32 L 22 32 L 22 25 L 22 25 Z  M 13 25 L 20 25 L 20 32 L 13 32 L 13 25 L 13 25 Z  M 13 34 L 20 34 L 20 41 L 13 41 L 13 34 L 13 34 Z  M 20 50 L 13 50 L 13 43 L 20 43 L 20 50 L 20 50 Z  M 29 50 L 22 50 L 22 43 L 29 43 L 29 50 L 29 50 Z  M 38 50 L 31 50 L 31 43 L 38 43 L 38 50 L 38 50 Z  M 47 50 L 40 50 L 40 43 L 47 43 L 47 50 L 47 50 Z  M 47 41 L 40 41 L 40 34 L 47 34 L 47 41 L 47 41 Z  M 47 25 L 47 32 L 40 32 L 40 25 L 47 25 L 47 25 Z " fill="rgb(115,186,225)" vector-effect="non-scaling-stroke" stroke-width="2" stroke="rgb(115,186,225)" stroke-linejoin="round" stroke-linecap="round" stroke-miterlimit="4"/></g></g></svg>